<?xml version="1.0" standalone="no"?>
<!DOCTYPE svg PUBLIC "-//W3C//DTD SVG 20010904//EN"
 "http://www.w3.org/TR/2001/REC-SVG-20010904/DTD/svg10.dtd">
<svg version="1.0" xmlns="http://www.w3.org/2000/svg"
 width="180.000000pt" height="180.000000pt" viewBox="0 0 180.000000 180.000000"
 preserveAspectRatio="xMidYMid meet">
<metadata>
Created by potrace 1.11, written by Peter Selinger 2001-2013
</metadata>
<g transform="translate(0.000000,180.000000) scale(0.100000,-0.100000)"
fill="#000000" stroke="none">
<path d="M817 1654 c-249 -45 -463 -177 -618 -383 -78 -105 -153 -275 -173
-392 -3 -19 -8 -45 -11 -59 -6 -29 -7 -258 -1 -268 2 -4 6 -30 10 -58 11 -97
76 -269 125 -333 17 -23 18 -23 50 -6 42 21 237 154 250 169 6 8 -2 34 -25 81
-45 94 -67 183 -68 280 0 144 29 237 110 351 195 276 585 353 865 173 56 -36
56 -35 121 -98 l47 -44 87 59 c49 32 93 61 99 64 8 4 71 44 104 67 6 4 -43 65
-100 122 -139 138 -316 233 -514 272 -83 17 -273 18 -358 3z"/>
<path d="M895 1168 c-78 -14 -190 -75 -254 -137 -98 -97 -146 -205 -150 -336
-2 -90 18 -166 80 -292 27 -56 49 -107 49 -113 0 -6 -7 -25 -16 -42 l-16 -31
39 7 c97 17 242 96 267 145 9 18 11 34 4 50 -21 57 16 112 78 114 57 2 84 -36
83 -114 -1 -52 3 -67 28 -103 61 -86 203 -127 318 -91 50 16 148 86 135 97 -3
3 -32 25 -65 50 -59 45 -144 127 -184 180 l-21 26 37 30 c21 16 90 66 153 112
63 45 119 86 124 90 4 5 -26 58 -69 119 l-76 111 -30 -21 -29 -21 -48 42
c-126 112 -277 156 -437 128z"/>
</g>
</svg>
